# xmcd
#
# Track frame offsets:
#	150
#	26697
#	45257
#	79902
#	100175
#	131212
#	157122
#	173922
#	203900
#	232360
#	262747
#	280015
#	300410
#	319947
#
# Disc length: 4537 seconds
# Revision: 0
# Processed by: cddbd v1.5.2PL0 Copyright (c) Steve Scherf et al.
# Submitted via: dBpowerAMP V12.0
#
DISCID=bd11b70e
DTITLE=Carl Sims - House of Love
DYEAR=1995
DGENRE=Soul
TTITLE0=Shot to The Curb
TTITLE1=House of Love
TTITLE2=I'm Trapped
TTITLE3=I'm a Blues Man
TTITLE4=A Change is Gonna Come
TTITLE5=Clever Girl
TTITLE6=You Keep me Dreaming
TTITLE7=Seventeen Days of Loving
TTITLE8=All These Things
TTITLE9=End of The Rainbow
TTITLE10=Shot to The Curb (Alt Version)
TTITLE11=I'm Trapped (Alt Version)
TTITLE12=Clever Girl (Alt Version)
TTITLE13=Seventeen Days of Loving (Alt Version)
EXTD=
EXTT0=
EXTT1=
EXTT2=
EXTT3=
EXTT4=
EXTT5=
EXTT6=
EXTT7=
EXTT8=
EXTT9=
EXTT10=
EXTT11=
EXTT12=
EXTT13=
PLAYORDER=
